<?xml version="1.0" encoding="UTF-8" standalone="no"?>
<svg
   xmlns:dc="http://purl.org/dc/elements/1.1/"
   xmlns:cc="http://creativecommons.org/ns#"
   xmlns:rdf="http://www.w3.org/1999/02/22-rdf-syntax-ns#"
   xmlns:svg="http://www.w3.org/2000/svg"
   xmlns="http://www.w3.org/2000/svg"
   viewBox="0 0 139.58667 135.18668"
   height="135.18668"
   width="139.58667"
   xml:space="preserve"
   id="svg2"
   version="1.1"><metadata
     id="metadata8"><rdf:RDF><cc:Work
         rdf:about=""><dc:format>image/svg+xml</dc:format><dc:type
           rdf:resource="http://purl.org/dc/dcmitype/StillImage" /></cc:Work></rdf:RDF></metadata><defs
     id="defs6" /><g
     transform="matrix(1.3333333,0,0,-1.3333333,0,135.18667)"
     id="g10"><g
       transform="scale(0.1)"
       id="g12"><path
         id="path14"
         style="fill:#d47a44;fill-opacity:1;fill-rule:nonzero;stroke:none"
         d="M 87.6328,232.27 57.8672,297.438 29.625,232.27 Z m 29.6482,-44.415 h -11.25 l -15.7029,37.668 h -63.164 c -2.2657,-5.918 -4.7266,-12.179 -7.3828,-18.781 -2.6563,-6.601 -5.1954,-12.89 -7.6172,-18.887 H 2.20313 c 4.21875,10.129 8.37887,20.051 12.48047,29.747 4.1016,9.707 8.1836,19.355 12.2461,28.945 4.0625,9.601 8.1445,19.25 12.2461,28.957 4.1015,9.695 8.2617,19.578 12.4805,29.637 H 64.8984 L 117.281,187.855" /><path
         id="path16"
         style="fill:#d47a44;fill-opacity:1;fill-rule:nonzero;stroke:none"
         d="m 146.578,249.281 h 44.531 c 6.329,0 11.758,0.43 16.289,1.282 4.532,0.859 8.262,2.265 11.192,4.226 2.93,1.965 5.098,4.512 6.504,7.656 1.406,3.137 2.109,6.993 2.109,11.555 0,8.066 -2.793,13.828 -8.379,17.285 -5.586,3.457 -13.926,5.184 -25.019,5.184 h -47.227 z m 93.633,-61.426 H 229.898 L 217.125,219 c -1.25,2.996 -2.637,5.809 -4.16,8.445 -1.524,2.649 -3.301,4.942 -5.332,6.907 -2.031,1.961 -4.356,3.515 -6.973,4.656 -2.617,1.144 -5.683,1.711 -9.199,1.711 h -44.883 v -52.864 h -9.375 v 117.18 h 57.774 c 5.39,0 10.605,-0.449 15.644,-1.34 5.039,-0.886 9.531,-2.48 13.477,-4.765 3.945,-2.274 7.09,-5.438 9.433,-9.461 2.344,-4.035 3.516,-9.192 3.516,-15.469 0,-3.926 -0.527,-7.578 -1.582,-10.969 -1.055,-3.386 -2.656,-6.414 -4.805,-9.09 -2.148,-2.675 -4.883,-4.961 -8.203,-6.855 -3.32,-1.887 -7.207,-3.262 -11.66,-4.121 2.422,-1.711 4.414,-3.352 5.976,-4.922 1.563,-1.563 2.911,-3.242 4.043,-5.031 1.133,-1.778 2.149,-3.739 3.047,-5.879 0.899,-2.149 1.934,-4.61 3.106,-7.383 l 13.242,-31.895" /><path
         id="path18"
         style="fill:#d47a44;fill-opacity:1;fill-rule:nonzero;stroke:none"
         d="m 361.969,273.676 c -0.86,3.496 -2.461,6.758 -4.805,9.797 -2.344,3.027 -5.273,5.672 -8.789,7.918 -3.516,2.246 -7.559,4.015 -12.129,5.293 -4.57,1.289 -9.473,1.933 -14.707,1.933 -7.422,0 -14.16,-1.113 -20.215,-3.32 -6.054,-2.215 -11.211,-5.477 -15.469,-9.793 -4.257,-4.316 -7.539,-9.699 -9.843,-16.152 -2.305,-6.465 -3.457,-13.965 -3.457,-22.532 0,-8.562 1.152,-16.101 3.457,-22.636 2.304,-6.524 5.586,-12 9.843,-16.426 4.258,-4.422 9.375,-7.774 15.352,-10.059 5.977,-2.285 12.637,-3.426 19.981,-3.426 11.093,0 20.234,2.266 27.421,6.797 7.188,4.532 11.641,11.153 13.36,19.852 h 9.726 c -0.937,-5.567 -2.851,-10.535 -5.742,-14.93 -2.89,-4.387 -6.523,-8.078 -10.898,-11.074 -4.375,-3 -9.414,-5.273 -15.117,-6.848 -5.704,-1.57 -11.875,-2.351 -18.516,-2.351 -9.063,0 -17.207,1.445 -24.434,4.336 -7.226,2.89 -13.379,6.972 -18.457,12.246 -5.078,5.281 -8.984,11.679 -11.718,19.207 -2.735,7.531 -4.102,15.969 -4.102,25.312 0,9.27 1.367,17.618 4.102,25.039 2.734,7.422 6.66,13.75 11.777,18.996 5.117,5.243 11.289,9.278 18.515,12.09 7.227,2.821 15.333,4.227 24.317,4.227 6.172,0 12.051,-0.82 17.637,-2.461 5.586,-1.641 10.605,-3.945 15.058,-6.902 4.453,-2.961 8.203,-6.485 11.25,-10.586 3.047,-4.114 5.156,-8.625 6.328,-13.547 h -9.726" /><path
         id="path20"
         style="fill:#d47a44;fill-opacity:1;fill-rule:nonzero;stroke:none"
         d="m 498.258,187.855 h -9.492 v 58.321 h -79.102 v -58.321 h -9.375 v 117.18 h 9.375 v -50.293 h 79.102 v 50.293 h 9.492 v -117.18" /><path
         id="path22"
         style="fill:#d47a44;fill-opacity:1;fill-rule:nonzero;stroke:none"
         d="m 545.129,187.855 h -9.371 v 117.18 h 9.371 v -117.18" /><path
         id="path24"
         style="fill:#d47a44;fill-opacity:1;fill-rule:nonzero;stroke:none"
         d="M 670.637,296.469 H 625.754 V 187.855 h -9.375 v 108.614 h -44.414 v 8.566 h 98.672 v -8.566" /><path
         id="path26"
         style="fill:#d47a44;fill-opacity:1;fill-rule:nonzero;stroke:none"
         d="m 702.98,249.281 h 44.532 c 6.328,0 11.758,0.43 16.289,1.282 4.527,0.859 8.262,2.265 11.187,4.226 2.934,1.965 5.102,4.512 6.504,7.656 1.406,3.137 2.113,6.993 2.113,11.555 0,8.066 -2.792,13.828 -8.378,17.285 -5.586,3.457 -13.926,5.184 -25.024,5.184 H 702.98 Z m 93.629,-61.426 H 786.301 L 773.523,219 c -1.25,2.996 -2.632,5.809 -4.16,8.445 -1.519,2.649 -3.3,4.942 -5.332,6.907 -2.027,1.961 -4.351,3.515 -6.968,4.656 -2.622,1.144 -5.684,1.711 -9.204,1.711 H 702.98 v -52.864 h -9.375 v 117.18 h 57.774 c 5.391,0 10.601,-0.449 15.641,-1.34 5.043,-0.886 9.535,-2.48 13.476,-4.765 3.945,-2.274 7.094,-5.438 9.438,-9.461 2.339,-4.035 3.511,-9.192 3.511,-15.469 0,-3.926 -0.523,-7.578 -1.582,-10.969 -1.05,-3.386 -2.652,-6.414 -4.8,-9.09 -2.153,-2.675 -4.883,-4.961 -8.208,-6.855 -3.32,-1.887 -7.207,-3.262 -11.66,-4.121 2.422,-1.711 4.414,-3.352 5.981,-4.922 1.558,-1.563 2.91,-3.242 4.043,-5.031 1.133,-1.778 2.144,-3.739 3.047,-5.879 0.894,-2.149 1.929,-4.61 3.101,-7.383 l 13.242,-31.895" /><path
         id="path28"
         style="fill:#d47a44;fill-opacity:1;fill-rule:nonzero;stroke:none"
         d="m 897.043,232.27 -29.77,65.168 -28.242,-65.168 z m 29.645,-44.415 h -11.25 l -15.704,37.668 H 836.57 c -2.261,-5.918 -4.722,-12.179 -7.382,-18.781 -2.657,-6.601 -5.196,-12.89 -7.618,-18.887 h -9.961 c 4.219,10.129 8.379,20.051 12.485,29.747 4.097,9.707 8.179,19.355 12.246,28.945 4.058,9.601 8.14,19.25 12.246,28.957 4.102,9.695 8.262,19.578 12.477,29.637 h 13.246 l 52.379,-117.286" /><path
         id="path30"
         style="fill:#d47a44;fill-opacity:1;fill-rule:nonzero;stroke:none"
         d="m 1046.92,305.035 -50.272,-117.18 h -12.07 l -50.269,117.18 h 10.425 l 45.942,-106.476 45.934,106.476 h 10.31" /><path
         id="path32"
         style="fill:#d47a44;fill-opacity:1;fill-rule:nonzero;stroke:none"
         d="m 118.207,79.1836 c -3.465,3.2812 -7.074,5.7422 -10.828,7.3828 -3.758,1.6406 -7.9102,2.4609 -12.4688,2.4609 -3.461,0 -6.5899,-0.6054 -9.3789,-1.8046 -2.793,-1.2032 -5.1836,-3.0196 -7.1719,-5.4493 -1.9883,-2.4336 -3.5313,-5.4804 -4.6211,-9.1406 -1.0899,-3.664 -1.6328,-7.9492 -1.6328,-12.8711 0,-9.2578 1.957,-16.289 5.8672,-21.0937 3.9179,-4.8047 9.3711,-7.2071 16.3632,-7.2071 4.6211,0 8.8551,1.1524 12.7031,3.4766 3.856,2.3047 7.574,5.75 11.168,10.3203 z m 0,-43.5938 c -2.309,-2.4609 -4.574,-4.4218 -6.785,-5.8867 -2.211,-1.4648 -4.367,-2.5976 -6.449,-3.3789 -2.086,-0.8008 -4.11,-1.3086 -6.0667,-1.5429 -1.9571,-0.2344 -3.8321,-0.3516 -5.629,-0.3516 -4.6835,0 -8.8242,0.8476 -12.414,2.5469 -3.5977,1.6992 -6.6094,4.0937 -9.0469,7.1601 -2.4414,3.086 -4.2812,6.7852 -5.5351,11.1211 -1.25,4.336 -1.875,9.1719 -1.875,14.5039 0,5.625 0.75,10.6836 2.2578,15.1563 1.5078,4.4922 3.5937,8.289 6.2539,11.4258 2.6679,3.1328 5.8125,5.5468 9.4336,7.207 3.625,1.6797 7.5273,2.5078 11.6953,2.5078 1.7969,0 3.625,-0.0859 5.4883,-0.2617 1.8598,-0.1758 3.7848,-0.5469 5.7738,-1.0938 1.988,-0.5664 4.054,-1.3984 6.211,-2.5117 2.148,-1.1133 4.378,-2.6055 6.687,-4.4805 v 34.7151 h 7.699 V 26.1875 h -7.699 v 9.4023" /><path
         id="path34"
         style="fill:#d47a44;fill-opacity:1;fill-rule:nonzero;stroke:none"
         d="m 204.828,65.7383 c -1.281,7.793 -4.183,13.6211 -8.711,17.4883 -4.519,3.8672 -10.086,5.8007 -16.699,5.8007 -3.27,0 -6.316,-0.4687 -9.141,-1.4062 -2.828,-0.9375 -5.339,-2.3711 -7.558,-4.3047 -2.211,-1.9336 -4.071,-4.3672 -5.578,-7.2969 -1.512,-2.9297 -2.586,-6.3554 -3.227,-10.2812 z M 180.863,24.4297 c -5.195,0 -9.91,0.8086 -14.148,2.4219 -4.235,1.6015 -7.875,3.9453 -10.926,7.0312 -3.047,3.0664 -5.402,6.836 -7.074,11.2891 -1.664,4.4531 -2.5,9.5195 -2.5,15.2031 0,5.5078 0.801,10.4688 2.406,14.8945 1.606,4.4219 3.883,8.1836 6.832,11.25 2.949,3.086 6.449,5.4375 10.492,7.0782 4.043,1.6406 8.532,2.4609 13.473,2.4609 5.07,0 9.66,-0.8203 13.766,-2.4609 4.105,-1.6407 7.601,-3.9922 10.492,-7.0782 2.887,-3.0664 5.097,-6.8281 6.64,-11.25 1.539,-4.4257 2.313,-9.414 2.313,-14.9804 V 58.707 h -58.715 c 0.387,-4.6289 1.316,-8.6445 2.789,-12.0429 1.481,-3.3985 3.402,-6.2305 5.777,-8.4844 2.375,-2.2578 5.118,-3.9375 8.227,-5.0508 3.117,-1.1133 6.5,-1.668 10.156,-1.668 2.567,0 5.133,0.2735 7.7,0.8399 2.566,0.5469 4.894,1.3867 6.98,2.5 2.086,1.1133 3.832,2.4883 5.242,4.1289 1.41,1.6406 2.246,3.5156 2.504,5.625 h 7.606 c -0.707,-3.2227 -1.957,-6.082 -3.754,-8.5625 -1.797,-2.5 -4.012,-4.6094 -6.645,-6.3281 -2.629,-1.7383 -5.613,-3.0391 -8.949,-3.918 -3.332,-0.8789 -6.899,-1.3164 -10.684,-1.3164" /><path
         id="path36"
         style="fill:#d47a44;fill-opacity:1;fill-rule:nonzero;stroke:none"
         d="m 257.48,24.4297 c -18.292,0 -28.265,6.707 -29.937,20.125 h 7.801 c 0.574,-4.1016 2.644,-7.3125 6.203,-9.6172 3.566,-2.3242 8.84,-3.4766 15.836,-3.4766 3.398,0 6.383,0.3321 8.949,1.0157 2.57,0.664 4.703,1.582 6.402,2.7148 1.7,1.1524 2.969,2.5078 3.797,4.0899 0.836,1.582 1.258,3.2812 1.258,5.0976 0,1.8164 -0.34,3.3711 -1.012,4.6602 -0.672,1.289 -1.894,2.4609 -3.656,3.5156 -1.769,1.0547 -4.176,2.0703 -7.223,3.0273 -3.046,0.9766 -6.945,2.0118 -11.695,3.125 -4.039,0.9375 -7.637,1.9024 -10.773,2.8985 -3.149,0.9961 -5.793,2.2265 -7.942,3.6914 -2.152,1.4648 -3.773,3.2344 -4.863,5.3242 -1.09,2.0703 -1.637,4.668 -1.637,7.7734 0,2.6953 0.625,5.1368 1.875,7.3438 1.254,2.1875 3.004,4.0508 5.25,5.5742 2.246,1.5234 4.973,2.6953 8.18,3.5156 3.207,0.8203 6.766,1.2305 10.684,1.2305 8.855,0 15.574,-1.3555 20.164,-4.0898 4.586,-2.7149 7.132,-7.0118 7.652,-12.8711 h -7.797 c -0.516,3.3984 -2.297,5.8984 -5.344,7.5195 -3.047,1.6016 -7.586,2.4101 -13.617,2.4101 -2.82,0 -5.426,-0.2343 -7.797,-0.7031 -2.375,-0.4687 -4.41,-1.1601 -6.109,-2.0586 -1.703,-0.9179 -3.031,-2.0625 -3.992,-3.4375 -0.965,-1.3789 -1.449,-2.9414 -1.449,-4.6992 0,-0.9961 0.191,-2.0195 0.578,-3.0742 0.386,-1.0547 1.363,-2.1406 2.933,-3.2539 1.574,-1.1133 3.934,-2.2344 7.074,-3.3867 3.149,-1.1328 7.446,-2.3243 12.903,-3.5547 4.297,-0.9961 8.031,-2.043 11.211,-3.125 3.176,-1.086 5.804,-2.3633 7.89,-3.8672 2.086,-1.4844 3.645,-3.2344 4.668,-5.2266 1.028,-1.9922 1.543,-4.3359 1.543,-7.0312 0,-2.9883 -0.66,-5.7891 -1.972,-8.3867 -1.321,-2.6172 -3.18,-4.8555 -5.586,-6.7305 -2.403,-1.875 -5.34,-3.3594 -8.805,-4.4414 -3.465,-1.0742 -7.348,-1.6211 -11.645,-1.6211" /><path
         id="path38"
         style="fill:#d47a44;fill-opacity:1;fill-rule:nonzero;stroke:none"
         d="m 314.844,111.441 h -7.699 v 10.985 h 7.699 z m -0.098,-85.2535 h -7.699 v 68.1133 h 7.699 V 26.1875" /><path
         id="path40"
         style="fill:#d47a44;fill-opacity:1;fill-rule:nonzero;stroke:none"
         d="m 388.863,79.1836 c -3.468,3.2812 -7.078,5.7422 -10.832,7.3828 -3.754,1.6406 -7.91,2.4609 -12.465,2.4609 -3.461,0 -6.589,-0.6054 -9.378,-1.8046 -2.793,-1.2032 -5.188,-3.0196 -7.172,-5.4493 -1.989,-2.4336 -3.532,-5.4804 -4.621,-9.1406 -1.094,-3.664 -1.637,-7.9492 -1.637,-12.8711 0,-9.2578 1.961,-16.289 5.871,-21.0937 3.914,-4.8047 9.367,-7.2071 16.359,-7.2071 4.621,0 8.86,1.1524 12.707,3.4766 3.852,2.3047 7.575,5.75 11.168,10.3203 z m 7.7,-48.9531 c 0,-5.4492 -0.645,-10.0899 -1.93,-13.9258 -1.281,-3.8359 -3.192,-6.96486 -5.727,-9.36329 C 386.371,4.53906 383.184,2.78125 379.332,1.67188 375.484,0.550781 371.02,0 365.953,0 c -4.234,0 -8.055,0.429688 -11.449,1.26953 -3.406,0.85156 -6.324,2.07031 -8.762,3.65235 -2.441,1.57812 -4.351,3.53906 -5.726,5.88672 -1.383,2.3398 -2.164,5.0078 -2.36,7.9961 h 7.699 c 0.325,-4.043 2.149,-7.0156 5.489,-8.92579 3.336,-1.89844 8.277,-2.84766 14.82,-2.84766 3.852,0 7.223,0.42969 10.106,1.26953 2.886,0.85938 5.293,2.23832 7.218,4.17972 1.922,1.9297 3.383,4.4765 4.379,7.6406 0.996,3.1641 1.496,7.0625 1.496,11.6914 v 4.3047 c -2.508,-2.6953 -4.863,-4.8242 -7.078,-6.375 -2.215,-1.5547 -4.347,-2.7149 -6.398,-3.5156 -2.059,-0.7813 -4.032,-1.2813 -5.918,-1.4844 -1.895,-0.207 -3.742,-0.3125 -5.539,-0.3125 -4.684,0 -8.825,0.8476 -12.41,2.5469 -3.598,1.6992 -6.614,4.0937 -9.047,7.1601 -2.446,3.086 -4.285,6.7852 -5.539,11.1211 -1.25,4.336 -1.875,9.1719 -1.875,14.5039 0,5.625 0.754,10.6836 2.261,15.1563 1.508,4.4922 3.594,8.289 6.254,11.4258 2.664,3.1328 5.813,5.5468 9.434,7.207 3.625,1.6797 7.523,2.5078 11.695,2.5078 1.797,0 3.656,-0.1172 5.578,-0.3516 1.93,-0.2343 3.918,-0.6523 5.969,-1.2773 2.055,-0.6055 4.141,-1.4453 6.262,-2.5 2.113,-1.0547 4.23,-2.4024 6.351,-4.043 v 6.4141 h 7.7 V 30.2305" /><path
         id="path42"
         style="fill:#d47a44;fill-opacity:1;fill-rule:nonzero;stroke:none"
         d="m 428.902,84.1953 c 2.5,2.6953 4.953,4.832 7.364,6.4141 2.406,1.582 4.746,2.7851 7.027,3.6054 2.273,0.8204 4.441,1.3282 6.492,1.543 2.055,0.1953 3.981,0.3008 5.778,0.3008 15.335,0 23,-8.2617 23,-24.7852 V 26.1875 h -7.7 v 44.4727 c 0,3.164 -0.3,5.8984 -0.914,8.2226 -0.609,2.3047 -1.605,4.2188 -2.98,5.7031 -1.383,1.5039 -3.18,2.6055 -5.391,3.3399 -2.215,0.7305 -4.93,1.1015 -8.137,1.1015 -4.23,0 -8.386,-1.1406 -12.461,-3.4257 -4.078,-2.2852 -8.105,-5.5078 -12.078,-9.668 V 26.1875 h -7.703 v 68.1133 h 7.703 V 84.1953" /><path
         id="path44"
         style="fill:#d47a44;fill-opacity:1;fill-rule:nonzero;stroke:none"
         d="m 639.102,79.1836 c -3.465,3.2812 -7.071,5.7422 -10.832,7.3828 -3.75,1.6406 -7.911,2.4609 -12.457,2.4609 -3.469,0 -6.594,-0.6054 -9.387,-1.8046 -2.793,-1.2032 -5.188,-3.0196 -7.168,-5.4493 -1.992,-2.4336 -3.535,-5.4804 -4.617,-9.1406 -1.094,-3.664 -1.645,-7.9492 -1.645,-12.8711 0,-9.2578 1.965,-16.289 5.871,-21.0937 3.914,-4.8047 9.375,-7.2071 16.367,-7.2071 4.621,0 8.86,1.1524 12.704,3.4766 3.847,2.3047 7.57,5.75 11.164,10.3203 z m 7.707,-48.9531 c 0,-5.4492 -0.649,-10.0899 -1.938,-13.9258 C 643.594,12.4688 641.68,9.33984 639.148,6.94141 636.609,4.53906 633.43,2.78125 629.57,1.67188 625.723,0.550781 621.262,0 616.191,0 c -4.226,0 -8.046,0.429688 -11.445,1.26953 -3.406,0.85156 -6.328,2.07031 -8.762,3.65235 -2.437,1.57812 -4.351,3.53906 -5.73,5.88672 -1.375,2.3398 -2.156,5.0078 -2.356,7.9961 h 7.7 c 0.32,-4.043 2.144,-7.0156 5.488,-8.92579 3.34,-1.89844 8.277,-2.84766 14.82,-2.84766 3.852,0 7.219,0.42969 10.11,1.26953 2.879,0.85938 5.293,2.23832 7.214,4.17972 1.926,1.9297 3.379,4.4765 4.375,7.6406 1,3.1641 1.497,7.0625 1.497,11.6914 v 4.3047 c -2.5,-2.6953 -4.864,-4.8242 -7.071,-6.375 -2.218,-1.5547 -4.355,-2.7149 -6.406,-3.5156 -2.051,-0.7813 -4.023,-1.2813 -5.918,-1.4844 -1.894,-0.207 -3.738,-0.3125 -5.535,-0.3125 -4.68,0 -8.82,0.8476 -12.414,2.5469 -3.594,1.6992 -6.613,4.0937 -9.043,7.1601 -2.442,3.086 -4.285,6.7852 -5.535,11.1211 -1.25,4.336 -1.875,9.1719 -1.875,14.5039 0,5.625 0.75,10.6836 2.254,15.1563 1.511,4.4922 3.593,8.289 6.257,11.4258 2.668,3.1328 5.813,5.5468 9.438,7.207 3.621,1.6797 7.516,2.5078 11.687,2.5078 1.797,0 3.664,-0.1172 5.586,-0.3516 1.922,-0.2343 3.914,-0.6523 5.965,-1.2773 2.055,-0.6055 4.145,-1.4453 6.262,-2.5 2.109,-1.0547 4.226,-2.4024 6.348,-4.043 v 6.4141 h 7.707 V 30.2305" /><path
         id="path46"
         style="fill:#d47a44;fill-opacity:1;fill-rule:nonzero;stroke:none"
         d="m 706.094,88.8516 c -0.711,0.1172 -1.477,0.1757 -2.317,0.1757 -0.769,0 -1.699,0 -2.793,0 -2.175,0 -4.296,-0.4101 -6.343,-1.2304 -2.051,-0.8203 -4.016,-1.8828 -5.871,-3.211 -1.868,-1.3086 -3.594,-2.8125 -5.196,-4.4726 -1.609,-1.6797 -2.988,-3.3906 -4.14,-5.1485 V 26.1875 h -7.704 v 68.1133 h 7.704 v -9.4024 c 2.175,2.3438 4.343,4.2461 6.496,5.711 2.144,1.4648 4.238,2.6094 6.258,3.4297 2.023,0.8203 3.957,1.3672 5.82,1.6211 1.855,0.2734 3.562,0.3984 5.097,0.3984 0.516,0 0.997,-0.0195 1.446,-0.0469 0.449,-0.0312 0.969,-0.0703 1.543,-0.1289 v -7.0312" /><path
         id="path48"
         style="fill:#d47a44;fill-opacity:1;fill-rule:nonzero;stroke:none"
         d="m 749.309,31.4609 c 3.789,0 7.234,0.5938 10.339,1.7969 3.118,1.1992 5.79,3.0156 8.04,5.4492 2.246,2.4297 3.992,5.4493 5.25,9.0625 1.25,3.5938 1.875,7.8008 1.875,12.6055 0,4.7461 -0.625,8.918 -1.875,12.5313 -1.258,3.5937 -3.004,6.582 -5.25,8.9648 -2.25,2.3633 -4.922,4.1484 -8.04,5.3516 -3.105,1.1992 -6.55,1.8046 -10.339,1.8046 -3.848,0 -7.336,-0.6054 -10.442,-1.8046 -3.113,-1.2032 -5.793,-2.9883 -8.039,-5.3516 -2.242,-2.3828 -3.98,-5.3711 -5.203,-8.9648 -1.211,-3.6133 -1.824,-7.7852 -1.824,-12.5313 0,-4.8047 0.613,-9.0117 1.824,-12.6055 1.223,-3.6132 2.961,-6.6328 5.203,-9.0625 2.246,-2.4336 4.926,-4.25 8.039,-5.4492 3.106,-1.2031 6.594,-1.7969 10.442,-1.7969 z m 0,64.5977 c 5.066,0 9.656,-0.8086 13.757,-2.4102 4.114,-1.6211 7.61,-3.9648 10.497,-7.0312 2.882,-3.0859 5.097,-6.8359 6.64,-11.25 1.535,-4.4336 2.309,-9.4258 2.309,-14.9922 0,-5.6836 -0.782,-10.75 -2.356,-15.2031 -1.57,-4.4531 -3.808,-8.2227 -6.687,-11.2891 -2.895,-3.0859 -6.391,-5.4297 -10.5,-7.0312 -4.102,-1.6133 -8.66,-2.4219 -13.66,-2.4219 -5.012,0 -9.543,0.7891 -13.625,2.3711 -4.075,1.582 -7.547,3.918 -10.442,6.9844 -2.887,3.0859 -5.137,6.8437 -6.734,11.2968 -1.606,4.4532 -2.403,9.5508 -2.403,15.293 0,5.625 0.782,10.6445 2.352,15.0703 1.57,4.4219 3.801,8.1641 6.688,11.211 2.89,3.0468 6.386,5.371 10.492,6.9921 4.109,1.6016 8.66,2.4102 13.672,2.4102" /><path
         id="path50"
         style="fill:#d47a44;fill-opacity:1;fill-rule:nonzero;stroke:none"
         d="m 852.297,35.3281 c -1.867,-2.0508 -3.969,-3.7695 -6.313,-5.1367 -2.339,-1.3867 -4.714,-2.5 -7.117,-3.3398 -2.414,-0.8516 -4.785,-1.4649 -7.129,-1.8555 -2.336,-0.3711 -4.441,-0.5664 -6.3,-0.5664 -15.27,0 -22.911,8.2891 -22.911,24.8711 v 45 h 7.707 V 49.918 c 0,-6.3867 1.297,-11.0664 3.899,-14.0235 2.597,-2.9609 7.105,-4.4336 13.523,-4.4336 4.617,0 8.965,1.1719 13.035,3.5157 4.075,2.3437 7.942,5.6836 11.606,10.0195 v 49.3047 h 7.691 V 26.1875 h -7.691 v 9.1406" /><path
         id="path52"
         style="fill:#d47a44;fill-opacity:1;fill-rule:nonzero;stroke:none"
         d="m 891.758,41.4805 c 6.926,-6.6797 14.883,-10.0196 23.867,-10.0196 3.469,0 6.594,0.625 9.387,1.8946 2.793,1.25 5.176,3.1133 7.168,5.5742 1.992,2.4609 3.523,5.5195 4.617,9.1914 1.094,3.6523 1.641,7.918 1.641,12.7812 0,9.2579 -1.946,16.2618 -5.833,21.0079 -3.875,4.7461 -9.343,7.1171 -16.406,7.1171 -9.234,0 -17.39,-4.539 -24.441,-13.621 z m 0,42.7148 c 2.43,2.6953 4.797,4.832 7.07,6.4141 2.277,1.582 4.473,2.7851 6.594,3.6054 2.117,0.8204 4.156,1.3477 6.109,1.5821 1.953,0.2344 3.867,0.3515 5.727,0.3515 4.629,0 8.726,-0.8515 12.32,-2.5507 3.598,-1.6993 6.613,-4.0899 9.043,-7.1563 2.442,-3.0859 4.309,-6.7891 5.59,-11.125 1.277,-4.3359 1.922,-9.1406 1.922,-14.4141 0,-5.5664 -0.75,-10.5937 -2.254,-15.0664 -1.516,-4.4921 -3.606,-8.3125 -6.262,-11.4765 -2.668,-3.1641 -5.808,-5.6133 -9.433,-7.3321 -3.621,-1.7304 -7.559,-2.5976 -11.789,-2.5976 -1.793,0 -3.661,0.0781 -5.582,0.2148 -1.926,0.1563 -3.918,0.5157 -5.969,1.1016 -2.051,0.5859 -4.168,1.457 -6.348,2.5898 -2.187,1.1524 -4.433,2.6836 -6.738,4.6172 V 1.14063 h -7.703 V 94.3008 h 7.703 V 84.1953" /><path
         id="path54"
         style="fill:none;stroke:#d47a44;stroke-width:10;stroke-linecap:square;stroke-linejoin:miter;stroke-miterlimit:10;stroke-dasharray:none;stroke-opacity:1"
         d="m 491.859,524.738 117.45,199.149" /><path
         id="path56"
         style="fill:none;stroke:#d47a44;stroke-width:10;stroke-linecap:butt;stroke-linejoin:miter;stroke-miterlimit:4;stroke-dasharray:none;stroke-opacity:1"
         d="m 655.266,800.484 -91.914,56.168 V 749.418" /><path
         id="path58"
         style="fill:none;stroke:#d47a44;stroke-width:10;stroke-linecap:square;stroke-linejoin:miter;stroke-miterlimit:10;stroke-dasharray:none;stroke-opacity:1"
         d="M 655.266,800.484 762.5,994.523 V 524.738 L 655.266,458.355 Z" /><path
         id="path60"
         style="fill:none;stroke:#d47a44;stroke-width:10;stroke-linecap:butt;stroke-linejoin:miter;stroke-miterlimit:4;stroke-dasharray:none;stroke-opacity:1"
         d="m 491.859,524.738 -91.914,51.063 117.45,199.148" /><path
         id="path62"
         style="fill:none;stroke:#d47a44;stroke-width:10;stroke-linecap:butt;stroke-linejoin:miter;stroke-miterlimit:4;stroke-dasharray:none;stroke-opacity:1"
         d="M 399.945,708.566 V 575.801" /><path
         id="path64"
         style="fill:none;stroke:#d47a44;stroke-width:10;stroke-linecap:butt;stroke-linejoin:miter;stroke-miterlimit:4;stroke-dasharray:none;stroke-opacity:1"
         d="m 655.266,458.355 -45.957,30.637" /><path
         id="path66"
         style="fill:none;stroke:#d47a44;stroke-width:10;stroke-linecap:square;stroke-linejoin:miter;stroke-miterlimit:10;stroke-dasharray:none;stroke-opacity:1"
         d="M 491.859,524.738 V 369.992" /><path
         id="path68"
         style="fill:none;stroke:#d47a44;stroke-width:10;stroke-linecap:square;stroke-linejoin:miter;stroke-miterlimit:10;stroke-dasharray:none;stroke-opacity:1"
         d="M 609.309,591.121 V 432.824 L 491.859,366.441 308.031,473.676 v 285.957 l 91.914,-51.067 117.45,66.383 91.914,-51.062 V 591.121" /><path
         id="path70"
         style="fill:none;stroke:#d47a44;stroke-width:5;stroke-linecap:butt;stroke-linejoin:miter;stroke-miterlimit:10;stroke-dasharray:none;stroke-opacity:1"
         d="M 0,146.816 H 1015.25" /></g></g></svg>